<?xml version="1.0" standalone="no"?>
<!DOCTYPE svg PUBLIC "-//W3C//DTD SVG 20010904//EN"
 "http://www.w3.org/TR/2001/REC-SVG-20010904/DTD/svg10.dtd">
<svg version="1.0" xmlns="http://www.w3.org/2000/svg"
 width="768.000000pt" height="558.000000pt" viewBox="0 0 768.000000 558.000000"
 preserveAspectRatio="xMidYMid meet">
<metadata>
Created by potrace 1.16, written by Peter Selinger 2001-2019
</metadata>
<g transform="translate(0.000000,558.000000) scale(0.100000,-0.100000)"
fill="#000000" stroke="none">
<path d="M1847 3839 c-60 -40 -128 -116 -158 -176 -20 -41 -23 -63 -24 -158 0
-101 2 -115 29 -168 44 -90 125 -142 270 -172 199 -41 481 0 852 123 82 28
157 53 167 57 11 5 -1 -17 -30 -56 -130 -172 -212 -412 -313 -917 -28 -139
-60 -283 -71 -320 -28 -91 -80 -187 -137 -254 -64 -76 -99 -103 -178 -140
-121 -56 -264 -41 -384 41 -194 133 -214 375 -47 596 88 117 220 207 406 276
69 26 73 28 39 29 -74 0 -237 -43 -324 -88 -214 -109 -393 -388 -394 -612 -1
-218 190 -441 430 -505 72 -19 220 -19 294 0 87 23 192 82 261 147 138 129
297 509 420 1008 95 383 124 465 211 596 58 89 141 171 236 235 127 87 354
177 490 195 26 4 48 10 48 14 0 16 -240 57 -417 72 -244 20 -357 -3 -710 -143
-244 -97 -403 -153 -498 -175 -106 -25 -332 -26 -386 -2 -76 33 -158 130 -173
203 -13 62 29 171 99 260 34 44 48 65 42 65 -2 0 -25 -14 -50 -31z"/>
<path d="M3455 2068 c-10 -47 -76 -545 -77 -579 -1 -53 10 -78 42 -94 31 -16
155 -21 164 -7 3 5 3 25 -1 45 -5 34 -9 37 -37 37 -18 0 -40 6 -50 13 -17 12
-15 27 23 297 23 156 41 289 41 297 0 9 -15 13 -50 13 -43 0 -50 -3 -55 -22z"/>
<path d="M5307 1754 c-26 -185 -46 -338 -44 -341 2 -2 35 -10 73 -18 89 -19
244 -19 288 -1 80 33 131 173 124 343 -3 93 -4 95 -36 124 -27 25 -41 29 -87
29 -61 0 -112 -17 -163 -56 -18 -14 -35 -24 -38 -22 -3 4 14 145 31 246 l6 32
-54 0 -53 0 -47 -336z m327 30 c18 -18 20 -53 6 -144 -15 -92 -36 -144 -66
-161 -25 -13 -186 -21 -197 -9 -3 3 2 56 10 118 l16 113 47 34 c86 63 153 81
184 49z"/>
<path d="M5935 2068 c-10 -47 -76 -545 -77 -579 -1 -53 10 -78 42 -94 31 -16
155 -21 164 -7 3 5 3 25 -1 45 -5 34 -9 37 -37 37 -18 0 -40 6 -50 13 -17 12
-15 27 23 297 23 156 41 289 41 297 0 9 -15 13 -50 13 -43 0 -50 -3 -55 -22z"/>
<path d="M2956 1875 c-91 -32 -136 -119 -143 -280 -4 -85 -2 -105 15 -135 29
-54 89 -80 185 -80 102 0 153 16 198 61 49 49 70 114 76 234 5 122 -9 157 -77
193 -36 18 -60 22 -130 22 -47 -1 -102 -7 -124 -15z m205 -94 c21 -17 24 -27
23 -84 -2 -82 -27 -167 -58 -196 -48 -45 -161 -48 -197 -4 -19 22 -16 124 5
196 23 80 58 107 141 107 47 0 69 -5 86 -19z"/>
<path d="M4273 1876 c-43 -20 -73 -70 -73 -124 0 -63 40 -100 175 -160 115
-51 134 -71 101 -104 -19 -20 -134 -31 -229 -22 l-75 7 -4 -39 c-3 -22 -3 -41
-1 -44 3 -3 75 -6 161 -8 136 -3 162 -1 191 15 52 27 73 62 74 122 1 70 -27
97 -165 157 -113 50 -136 70 -119 103 14 25 63 31 196 24 l112 -6 6 39 c4 21
4 40 2 43 -3 2 -76 6 -163 8 -123 3 -164 0 -189 -11z"/>
<path d="M4820 1868 c-76 -39 -119 -155 -120 -321 0 -129 32 -167 140 -167 71
0 124 20 175 62 l30 26 -3 -39 -4 -39 44 0 45 0 33 235 c18 129 31 237 29 239
-11 11 -143 26 -229 26 -80 0 -103 -4 -140 -22z m255 -71 c2 -1 -5 -53 -14
-116 -15 -109 -17 -114 -51 -143 -73 -62 -161 -85 -196 -51 -14 14 -15 29 -10
85 15 160 41 214 112 229 33 7 153 4 159 -4z"/>
<path d="M6287 1876 c-47 -17 -74 -41 -97 -86 -46 -91 -54 -283 -14 -336 43
-58 67 -68 172 -72 54 -2 124 1 155 8 52 10 57 14 57 38 0 46 -8 49 -100 41
-142 -13 -189 5 -204 77 l-7 30 121 12 c137 12 183 30 217 81 17 25 23 48 23
91 0 69 -23 104 -78 120 -52 14 -200 12 -245 -4z m211 -90 c18 -18 8 -68 -18
-91 -14 -12 -49 -21 -115 -28 -52 -6 -97 -8 -100 -6 -9 10 16 80 38 105 12 14
38 29 57 34 45 11 121 4 138 -14z"/>
<path d="M3650 1873 c0 -37 96 -452 108 -465 9 -11 30 -18 51 -18 l36 0 -50
-48 c-29 -28 -71 -56 -100 -67 -27 -10 -51 -19 -52 -20 -3 -2 17 -75 21 -75
19 0 118 37 145 54 87 56 177 183 245 348 33 80 86 255 86 286 0 8 -17 12 -54
12 l-53 0 -7 -41 c-9 -58 -72 -243 -104 -309 -24 -48 -31 -55 -57 -55 -29 0
-30 1 -46 80 -9 44 -27 135 -39 203 l-23 122 -53 0 c-30 0 -54 -3 -54 -7z"/>
</g>
</svg>
